<svg xmlns="http://www.w3.org/2000/svg" xmlns:svg="http://www.w3.org/2000/svg" id="svg6069" width="692" height="320" version="1.1" viewBox="0 0 519 240"><metadata id="metadata6144"/><defs id="defs6142"><clipPath id="clipPath6269" clipPathUnits="userSpaceOnUse"><circle id="circle6271" cx="276.944" cy="32.5" r="26.389" style="opacity:1;fill:#806600;fill-opacity:1;stroke:#617fff;stroke-width:1.39999998;stroke-linecap:round;stroke-linejoin:round;stroke-miterlimit:4;stroke-dasharray:none;stroke-opacity:1"/></clipPath></defs><path id="path6072" d="m 58.889889,0.75 402.388891,0 0,238.5 -402.388891,0 z" class=".svg_stroke" style="fill:none;stroke:currentcolor;stroke-width:1.5;stroke-linecap:butt;stroke-linejoin:miter;stroke-miterlimit:10;stroke-dasharray:10,4;stroke-dashoffset:1;stroke-opacity:.26666703"/><text id="text6180" x="63.514" y="13.124" class=".svg_fill" xml:space="preserve" style="font-style:normal;font-weight:400;font-size:13.13514996px;line-height:125%;font-family:sans-serif;letter-spacing:0;word-spacing:0;fill:currentcolor;fill-opacity:.2;stroke:none;stroke-width:1px;stroke-linecap:butt;stroke-linejoin:miter;stroke-opacity:1"><tspan id="tspan6182" x="63.514" y="13.124">Screen</tspan></text><g id="g6212" transform="translate(34.806558,12.777778)"><path style="fill:#617fff;fill-opacity:.49019602;fill-rule:nonzero;stroke:#617fff;stroke-width:1.39999998;stroke-miterlimit:4;stroke-dasharray:none;stroke-opacity:1" id="path6078" d="m 30.606602,25.392837 c 0,-2.761719 2.238281,-5 5,-5 l 245.644098,0 c 2.76172,0 5,2.238281 5,5 l 0,190.000003 c 0,2.76172 -2.23828,5 -5,5 l -245.644098,0 c -2.761719,0 -5,-2.23828 -5,-5 z"/><g id="g6483"><path style="fill:#617fff;fill-opacity:.49019602;fill-rule:nonzero;stroke:#617fff;stroke-width:.68181419;stroke-miterlimit:4;stroke-dasharray:none;stroke-opacity:1" id="path6184" d="m 31.289175,23.996573 c 0,-1.344985 1.090066,-2.435051 2.435051,-2.435051 l 248.876614,0 c 1.34498,0 2.43505,1.090066 2.43505,2.435051 l 0,7.679111 c 0,1.34499 -1.09007,2.43506 -2.43505,2.43506 l -248.876614,0 c -1.344985,0 -2.435051,-1.09007 -2.435051,-2.43506 z"/><text id="text6192" x="131.392" y="30.662" class=".svg_fill" xml:space="preserve" style="font-style:normal;font-weight:400;font-size:10.9279623px;line-height:125%;font-family:sans-serif;letter-spacing:0;word-spacing:0;fill:currentcolor;fill-opacity:1;stroke:none;stroke-width:1px;stroke-linecap:butt;stroke-linejoin:miter;stroke-opacity:1"><tspan id="tspan6194" x="131.392" y="30.662">Top titlebar</tspan></text></g><g id="g6494"><path id="path6186" d="m 31.289175,209.41568 c 0,-1.34498 1.090066,-2.43505 2.435051,-2.43505 l 248.876614,0 c 1.34498,0 2.43505,1.09007 2.43505,2.43505 l 0,7.67912 c 0,1.34499 -1.09007,2.43506 -2.43505,2.43506 l -248.876614,0 c -1.344985,0 -2.435051,-1.09007 -2.435051,-2.43506 z" style="fill:#617fff;fill-opacity:.49019602;fill-rule:nonzero;stroke:#617fff;stroke-width:.68181419;stroke-miterlimit:4;stroke-dasharray:none;stroke-opacity:1"/><text id="text6196" x="122.561" y="217.161" class=".svg_fill" style="font-style:normal;font-weight:400;font-size:10.9279623px;line-height:125%;font-family:sans-serif;letter-spacing:0;word-spacing:0;fill:currentcolor;fill-opacity:1;stroke:none;stroke-width:1px;stroke-linecap:butt;stroke-linejoin:miter;stroke-opacity:1" xml:space="preserve"><tspan id="tspan6198" x="122.561" y="217.161">Bottom titlebar</tspan></text></g><g id="g6478"><path id="path6188" d="m 34.31226,205.97371 c -1.34498,0 -2.43505,-1.09006 -2.43505,-2.43505 l 0,-166.37878 c 0,-1.34498 1.09007,-2.43505 2.43505,-2.43505 l 7.67911,0 c 1.34499,0 2.43506,1.090071 2.43506,2.43505 l 0,166.37878 c 0,1.34499 -1.09007,2.43505 -2.43506,2.43505 z" style="fill:#617fff;fill-opacity:.49019602;fill-rule:nonzero;stroke:#617fff;stroke-width:.68181419;stroke-miterlimit:4;stroke-dasharray:none;stroke-opacity:1"/><text id="text6200" x="37.922" y="38.963" class=".svg_fill" xml:space="preserve" style="font-style:normal;font-weight:400;font-size:10.9279623px;line-height:108.00000429%;font-family:sans-serif;letter-spacing:-.024px;word-spacing:0;writing-mode:tb-rl;fill:currentcolor;fill-opacity:1;stroke:none;stroke-width:1px;stroke-linecap:butt;stroke-linejoin:miter;stroke-opacity:1"><tspan id="tspan6202" x="38.963" y="37.922" style="line-height:100%;letter-spacing:-.024px">Left titlebar</tspan></text></g><g id="g6467"><path style="fill:#617fff;fill-opacity:.49019602;fill-rule:nonzero;stroke:#617fff;stroke-width:.68181419;stroke-miterlimit:4;stroke-dasharray:none;stroke-opacity:1" id="path6190" d="m 274.72857,206.29548 c -1.34498,0 -2.43505,-1.09006 -2.43505,-2.43505 l 0,-166.378778 c 0,-1.34498 1.09007,-2.43505 2.43505,-2.43505 l 7.67911,0 c 1.34499,0 2.43506,1.090071 2.43506,2.43505 l 0,166.378778 c 0,1.34499 -1.09007,2.43505 -2.43506,2.43505 z"/><text id="text6204" x="278.376" y="32.858" class=".svg_fill" style="font-style:normal;font-weight:400;font-size:10.9279623px;line-height:125%;font-family:sans-serif;letter-spacing:0;word-spacing:0;writing-mode:tb-rl;fill:currentcolor;fill-opacity:1;stroke:none;stroke-width:1px;stroke-linecap:butt;stroke-linejoin:miter;stroke-opacity:1" xml:space="preserve"><tspan id="tspan6206" x="32.858" y="278.376">Right titlebar</tspan></text></g><text id="text6208" x="124.764" y="124.299" class=".svg_fill" xml:space="preserve" style="font-style:normal;font-weight:400;font-size:10.9279623px;line-height:125%;font-family:sans-serif;letter-spacing:0;word-spacing:0;fill:currentcolor;fill-opacity:1;stroke:none;stroke-width:1px;stroke-linecap:butt;stroke-linejoin:miter;stroke-opacity:1"><tspan id="tspan6210" x="124.764" y="124.299">Client content</tspan></text></g><g id="g6294" transform="matrix(2.2305168,0,0,2.2305168,435.74175,23.132349)"><g id="g6229" clip-path="url(#clipPath6269)" transform="translate(-296.66667,17.777778)"><path style="fill:#617fff;fill-opacity:.49019602;fill-rule:nonzero;stroke:#617fff;stroke-width:1.39999998;stroke-miterlimit:4;stroke-dasharray:none;stroke-opacity:1" id="path6231" d="m 30.606602,25.392837 c 0,-2.761719 2.238281,-5 5,-5 l 245.644098,0 c 2.76172,0 5,2.238281 5,5 l 0,190.000003 c 0,2.76172 -2.23828,5 -5,5 l -245.644098,0 c -2.761719,0 -5,-2.23828 -5,-5 z"/><path id="path6233" d="m 31.289175,23.996573 c 0,-1.344985 1.090066,-2.435051 2.435051,-2.435051 l 248.876614,0 c 1.34498,0 2.43505,1.090066 2.43505,2.435051 l 0,7.679111 c 0,1.34499 -1.09007,2.43506 -2.43505,2.43506 l -248.876614,0 c -1.344985,0 -2.435051,-1.09007 -2.435051,-2.43506 z" style="fill:#617fff;fill-opacity:.49019602;fill-rule:nonzero;stroke:#617fff;stroke-width:.68181419;stroke-miterlimit:4;stroke-dasharray:none;stroke-opacity:1"/><path style="fill:#617fff;fill-opacity:.49019602;fill-rule:nonzero;stroke:#617fff;stroke-width:.68181419;stroke-miterlimit:4;stroke-dasharray:none;stroke-opacity:1" id="path6235" d="m 31.289175,209.41568 c 0,-1.34498 1.090066,-2.43505 2.435051,-2.43505 l 248.876614,0 c 1.34498,0 2.43505,1.09007 2.43505,2.43505 l 0,7.67912 c 0,1.34499 -1.09007,2.43506 -2.43505,2.43506 l -248.876614,0 c -1.344985,0 -2.435051,-1.09007 -2.435051,-2.43506 z"/><path style="fill:#617fff;fill-opacity:.49019602;fill-rule:nonzero;stroke:#617fff;stroke-width:.68181419;stroke-miterlimit:4;stroke-dasharray:none;stroke-opacity:1" id="path6237" d="m 34.31226,205.97371 c -1.34498,0 -2.43505,-1.09006 -2.43505,-2.43505 l 0,-166.37878 c 0,-1.34498 1.09007,-2.43505 2.43505,-2.43505 l 7.67911,0 c 1.34499,0 2.43506,1.090071 2.43506,2.43505 l 0,166.37878 c 0,1.34499 -1.09007,2.43505 -2.43506,2.43505 z"/><path id="path6239" d="m 274.72857,206.29548 c -1.34498,0 -2.43505,-1.09006 -2.43505,-2.43505 l 0,-166.378778 c 0,-1.34498 1.09007,-2.43505 2.43505,-2.43505 l 7.67911,0 c 1.34499,0 2.43506,1.090071 2.43506,2.43505 l 0,166.378778 c 0,1.34499 -1.09007,2.43505 -2.43506,2.43505 z" style="fill:#617fff;fill-opacity:.49019602;fill-rule:nonzero;stroke:#617fff;stroke-width:.68181419;stroke-miterlimit:4;stroke-dasharray:none;stroke-opacity:1"/><text id="text6241" x="131.392" y="30.662" class=".svg_fill" style="font-style:normal;font-weight:400;font-size:10.9279623px;line-height:125%;font-family:sans-serif;letter-spacing:0;word-spacing:0;fill:currentcolor;fill-opacity:1;stroke:none;stroke-width:1px;stroke-linecap:butt;stroke-linejoin:miter;stroke-opacity:1" xml:space="preserve"><tspan id="tspan6243" x="131.392" y="30.662">Top titlebar</tspan></text><text id="text6245" x="122.561" y="217.161" class=".svg_fill" xml:space="preserve" style="font-style:normal;font-weight:400;font-size:10.9279623px;line-height:125%;font-family:sans-serif;letter-spacing:0;word-spacing:0;fill:currentcolor;fill-opacity:1;stroke:none;stroke-width:1px;stroke-linecap:butt;stroke-linejoin:miter;stroke-opacity:1"><tspan id="tspan6247" x="122.561" y="217.161">Bottom titlebar</tspan></text><text id="text6249" x="37.922" y="38.963" class=".svg_fill" style="font-style:normal;font-weight:400;font-size:10.9279623px;line-height:108.00000429%;font-family:sans-serif;letter-spacing:-.024px;word-spacing:0;writing-mode:tb-rl;fill:currentcolor;fill-opacity:1;stroke:none;stroke-width:1px;stroke-linecap:butt;stroke-linejoin:miter;stroke-opacity:1" xml:space="preserve"><tspan style="line-height:100%;letter-spacing:-.024px" id="tspan6251" x="38.963" y="37.922">Left titlebar</tspan></text><text id="text6253" x="278.376" y="32.858" class=".svg_fill" xml:space="preserve" style="font-style:normal;font-weight:400;font-size:10.9279623px;line-height:125%;font-family:sans-serif;letter-spacing:0;word-spacing:0;writing-mode:tb-rl;fill:currentcolor;fill-opacity:1;stroke:none;stroke-width:1px;stroke-linecap:butt;stroke-linejoin:miter;stroke-opacity:1"><tspan id="tspan6255" x="32.858" y="278.376">Right titlebar</tspan></text><text id="text6257" x="124.764" y="124.299" class=".svg_fill" xml:space="preserve" style="font-style:normal;font-weight:400;font-size:10.9279623px;line-height:125%;font-family:sans-serif;letter-spacing:0;word-spacing:0;fill:currentcolor;fill-opacity:1;stroke:none;stroke-width:1px;stroke-linecap:butt;stroke-linejoin:miter;stroke-opacity:1"><tspan id="tspan6259" x="124.764" y="124.299">Client content</tspan></text></g><circle id="path6261" cx="-19.722" cy="50.278" r="26.389" style="opacity:1;fill:none;fill-opacity:1;stroke:#617fff;stroke-width:1.39999998;stroke-linecap:round;stroke-linejoin:round;stroke-miterlimit:4;stroke-dasharray:none;stroke-opacity:1"/></g><circle id="circle6292" cx="313.973" cy="44.167" r="26.389" style="opacity:1;fill:none;fill-opacity:1;stroke:#617fff;stroke-width:1.39999998;stroke-linecap:round;stroke-linejoin:round;stroke-miterlimit:4;stroke-dasharray:none;stroke-opacity:1"/><path class=".svg_fill" style="fill:currentcolor;fill-opacity:0;fill-rule:evenodd;stroke:#617fff;stroke-width:1.60000002;stroke-linecap:butt;stroke-linejoin:miter;stroke-miterlimit:4;stroke-dasharray:none;stroke-opacity:1" id="path6313" d="M 327.02878,21.111111 419.251,82.222224"/><path class=".svg_fill" style="fill:currentcolor;fill-opacity:0;fill-rule:evenodd;stroke:#617fff;stroke-width:1.60000002;stroke-linecap:butt;stroke-linejoin:miter;stroke-miterlimit:4;stroke-dasharray:none;stroke-opacity:1" id="path6315" d="M 295.08433,62.638889 339.251,162.77778"/><path style="fill:none;fill-rule:evenodd;stroke:#ff0202;stroke-width:2.88000011;stroke-linecap:round;stroke-linejoin:round;stroke-miterlimit:4;stroke-dasharray:none;stroke-opacity:1" id="path6319" d="m 386.5517,105.25687 c 7.05033,-0.0468 12.5887,0.3286 16.84282,0.41946 5.43752,0.11613 11.28508,5.54811 11.61592,10.79433 0.19715,3.12624 0.007,7.00671 0.21837,11.9636"/><path id="path6321" d="m 386.39337,110.80386 c 5.59189,-0.20902 10.42005,0.0276 14.15455,0.0712 5.96201,0.0696 9.42365,2.72239 9.41883,9.41645 -0.003,4.0189 -0.21637,9.3958 -0.25876,17.77458" style="fill:none;fill-rule:evenodd;stroke:#ff0202;stroke-width:2.36934948;stroke-linecap:round;stroke-linejoin:round;stroke-miterlimit:4;stroke-dasharray:none;stroke-opacity:1"/><text id="text6192-0" x="327.727" y="221.886" class=".svg_fill" style="font-style:normal;font-weight:400;font-size:10.9279623px;line-height:125%;font-family:sans-serif;letter-spacing:0;word-spacing:0;fill:currentcolor;fill-opacity:1;stroke:none;stroke-width:1px;stroke-linecap:butt;stroke-linejoin:miter;stroke-opacity:1" xml:space="preserve"><tspan id="tspan6194-9" x="327.727" y="221.886">Shape bounding outline</tspan></text><text id="text6192-5" x="328.164" y="208.452" class=".svg_fill" style="font-style:normal;font-weight:400;font-size:10.9279623px;line-height:125%;font-family:sans-serif;letter-spacing:0;word-spacing:0;fill:currentcolor;fill-opacity:1;stroke:none;stroke-width:1px;stroke-linecap:butt;stroke-linejoin:miter;stroke-opacity:1" xml:space="preserve"><tspan id="tspan6194-4" x="328.164" y="208.452">Shape clip outline</tspan></text><path class=".svg_stroke" style="fill:none;fill-rule:evenodd;stroke:currentcolor;stroke-width:.80000001px;stroke-linecap:butt;stroke-linejoin:miter;stroke-opacity:1" id="path6349" d="m 415.22882,118.2205 40.06938,0 0,99.78062 -6.2854,0"/><path class=".svg_stroke" style="fill:none;fill-rule:evenodd;stroke:currentcolor;stroke-width:.80000001px;stroke-linecap:butt;stroke-linejoin:miter;stroke-opacity:1" id="path6351" d="m 410.63989,133.61111 18.88889,0 0,71.11111 -6.94444,0"/><path class=".svg_stroke" style="fill:none;fill-rule:evenodd;stroke:currentcolor;stroke-width:.80000001px;stroke-linecap:butt;stroke-linejoin:miter;stroke-opacity:1" id="path6353" d="m 418.93898,200.35818 3.33912,0 0,8.64241 -3.33912,0"/><path id="path6355" d="m 445.91815,214.03874 3.33912,0 0,8.64241 -3.33912,0" class=".svg_stroke" style="fill:none;fill-rule:evenodd;stroke:currentcolor;stroke-width:.80000001px;stroke-linecap:butt;stroke-linejoin:miter;stroke-opacity:1"/><path id="path6357" d="m 371.60211,105.68444 3.33912,0 0,5.30329 -3.33912,0" class=".svg_stroke" style="fill:none;fill-rule:evenodd;stroke:currentcolor;stroke-width:.80000001px;stroke-linecap:butt;stroke-linejoin:miter;stroke-opacity:1"/><path id="path6359" d="m 385.31699,32.441513 -3.33912,0 0,8.64241 3.33912,0" class=".svg_stroke" style="fill:none;fill-rule:evenodd;stroke:currentcolor;stroke-width:.80000001px;stroke-linecap:butt;stroke-linejoin:miter;stroke-opacity:1"/><path class=".svg_stroke" style="fill:none;fill-rule:evenodd;stroke:currentcolor;stroke-width:.80000001px;stroke-linecap:butt;stroke-linejoin:miter;stroke-opacity:1" id="path6361" d="m 375.36211,108.26388 2.77778,0 0,-71.319435 3.61111,0"/><text id="text6363" x="386.219" y="40.119" class=".svg_fill" xml:space="preserve" style="font-style:normal;font-weight:400;font-size:10.9279623px;line-height:125%;font-family:sans-serif;letter-spacing:0;word-spacing:0;fill:currentcolor;fill-opacity:1;stroke:none;stroke-width:1px;stroke-linecap:butt;stroke-linejoin:miter;stroke-opacity:1"><tspan id="tspan6365" x="386.219" y="40.119">Border</tspan></text></svg>